Coordinates
version=1
nRows=16
nColumns=63
inDegrees=yes

Units are S.I. units (second, meters, Newtons, ...)
If the header above contains a line with 'inDegrees', this indicates whether rotational values are in degrees (yes) or radians (no).

endheader
time	pelvis_tilt	pelvis_list	pelvis_rotation	pelvis_tx	pelvis_ty	pelvis_tz	hip_flexion_r	hip_adduction_r	hip_rotation_r	knee_angle_r	knee_angle_r_beta	ankle_angle_r	subtalar_angle_r	mtp_angle_r	hip_flexion_l	hip_adduction_l	hip_rotation_l	knee_angle_l	knee_angle_l_beta	ankle_angle_l	subtalar_angle_l	mtp_angle_l	L5_S1_Flex_Ext	L5_S1_Lat_Bending	L5_S1_axial_rotation	L4_L5_Flex_Ext	L4_L5_Lat_Bending	L4_L5_axial_rotation	L3_L4_Flex_Ext	L3_L4_Lat_Bending	L3_L4_axial_rotation	L2_L3_Flex_Ext	L2_L3_Lat_Bending	L2_L3_axial_rotation	L1_L2_Flex_Ext	L1_L2_Lat_Bending	L1_L2_axial_rotation	L1_T12_Flex_Ext	L1_T12_Lat_Bending	L1_T12_axial_rotation	Abs_r3	Abs_r2	Abs_r1	Abs_t1	Abs_t2	neck_flexion	neck_bending	neck_rotation	arm_flex_r	arm_add_r	arm_rot_r	elbow_flex_r	pro_sup_r	wrist_flex_r	wrist_dev_r	arm_flex_l	arm_add_l	arm_rot_l	elbow_flex_l	pro_sup_l	wrist_flex_l	wrist_dev_l
2.195652	-7.574440	-1.671894	85.611601	0.335641	0.890399	0.733270	-4.023564	-3.990373	18.779055	0.536624	0.009366	26.670742	-6.748183	0.000000	-2.938564	2.344768	-16.128064	4.849788	0.084645	27.677220	13.324187	0.000000	-0.318990	-1.780142	3.219560	-0.592397	-2.367589	3.420782	-0.524069	-4.328238	3.420782	-0.364574	-4.328238	2.817115	-0.296214	-3.630066	2.615892	-0.182271	-2.757440	2.414670	-2.278516	-20.137325	17.906224	0.000000	0.000000	-8.644596	-25.437121	-2.082699	32.104325	7.185024	50.423001	149.889285	89.470880	13.708412	14.405648	15.254252	4.164874	24.566232	149.864904	82.063111	3.867477	-23.966958
2.217391	-7.645686	-1.517142	85.337644	0.336191	0.890665	0.732757	-4.153004	-4.085775	18.751477	0.535649	0.009349	26.812152	-6.302285	0.000000	-3.196018	2.463631	-16.139886	4.712884	0.082255	27.524071	13.033513	0.000000	-0.320531	-1.794972	3.269562	-0.595259	-2.387313	3.473910	-0.526601	-4.364295	3.473910	-0.366335	-4.364295	2.860867	-0.297645	-3.660307	2.656519	-0.183152	-2.780412	2.452171	-2.289523	-20.305083	18.184323	0.000000	0.000000	-8.588303	-25.458557	-1.844280	32.195023	7.333959	50.462575	149.890328	89.475363	14.215559	15.011136	15.232527	4.184009	24.333460	149.865067	81.669242	4.214105	-23.962264
2.239130	-7.723107	-1.376874	85.088598	0.336698	0.890908	0.732275	-4.267940	-4.188371	18.611539	0.539976	0.009424	26.941089	-5.747772	0.000000	-3.429819	2.584447	-16.194720	4.590733	0.080123	27.367818	12.805041	0.000000	-0.321284	-1.809192	3.316341	-0.596656	-2.406226	3.523612	-0.527837	-4.398870	3.523612	-0.367195	-4.398870	2.901798	-0.298344	-3.689305	2.694527	-0.183581	-2.802439	2.487255	-2.294897	-20.465944	18.444491	0.000000	0.000000	-8.493004	-25.469349	-1.568648	32.310200	7.495117	50.501381	149.890896	89.476778	14.562927	15.613510	15.211891	4.223526	24.019116	149.865550	81.103825	4.923182	-23.960320
2.260870	-7.816227	-1.246155	84.867911	0.337194	0.891110	0.731886	-4.375568	-4.302410	18.649261	0.539732	0.009420	26.966663	-5.506726	0.000000	-3.636442	2.711588	-16.314880	4.487239	0.078317	27.229545	12.675340	0.000000	-0.322089	-1.825604	3.364381	-0.598152	-2.428054	3.574655	-0.529160	-4.438774	3.574655	-0.368116	-4.438774	2.943834	-0.299092	-3.722772	2.733560	-0.184042	-2.827861	2.523286	-2.300650	-20.651600	18.711679	0.000000	0.000000	-8.393942	-25.444476	-1.322448	32.433661	7.660807	50.468632	149.891469	89.475033	14.861115	16.187574	15.229886	4.253112	23.759731	149.867137	80.611093	5.421465	-23.973308
2.282609	-7.921076	-1.135926	84.671538	0.337644	0.891267	0.731612	-4.458628	-4.426419	18.640380	0.541700	0.009454	26.962680	-5.256527	0.000000	-3.807093	2.847052	-16.441507	4.382537	0.076490	27.106898	12.551108	0.000000	-0.321715	-1.843027	3.411795	-0.597456	-2.451226	3.625032	-0.528545	-4.481135	3.625032	-0.367688	-4.481135	2.985320	-0.298744	-3.758300	2.772083	-0.183828	-2.854849	2.558846	-2.297976	-20.848688	18.975379	0.000000	0.000000	-8.285262	-25.446179	-1.103443	32.562922	7.810540	50.407313	149.891870	89.473188	15.045563	16.680034	15.259331	4.287895	23.480892	149.869352	80.080081	6.096375	-23.988002
2.304348	-8.031838	-1.046595	84.514131	0.338055	0.891382	0.731499	-4.515913	-4.550963	18.590649	0.545917	0.009528	26.931522	-5.017658	0.000000	-3.935278	2.980487	-16.568677	4.278342	0.074671	27.026674	12.456698	0.000000	-0.322315	-1.861432	3.455580	-0.598571	-2.475704	3.671554	-0.529531	-4.525885	3.671554	-0.368374	-4.525885	3.023632	-0.299302	-3.795832	2.807659	-0.184171	-2.883358	2.591685	-2.302263	-21.056889	19.218899	0.000000	0.000000	-8.161533	-25.470842	-0.947951	32.696888	7.944190	50.321325	149.892285	89.470695	15.117849	17.085060	15.316251	4.322504	23.213913	149.872313	79.565570	6.868722	-24.007840
2.326087	-8.147332	-0.981913	84.380794	0.338435	0.891446	0.731555	-4.540379	-4.675103	18.540361	0.551052	0.009618	26.873346	-4.826732	0.000000	-4.013623	3.109263	-16.721956	4.181600	0.072983	26.999014	12.410646	0.000000	-0.323611	-1.881023	3.499335	-0.600978	-2.501761	3.718044	-0.531660	-4.573520	3.718044	-0.369855	-4.573520	3.061919	-0.300505	-3.835783	2.843210	-0.184911	-2.913705	2.624502	-2.311519	-21.278513	19.462254	0.000000	0.000000	-8.060930	-25.493077	-0.929008	32.809116	8.061500	50.177129	149.892893	89.466840	15.176590	17.376095	15.399096	4.353123	22.980819	149.876113	79.206840	7.579915	-24.036441
2.347826	-8.249514	-0.944980	84.266057	0.338750	0.891464	0.731769	-4.527089	-4.781726	18.433598	0.562465	0.009817	26.813272	-4.589060	0.000000	-4.049528	3.221406	-16.829311	4.078237	0.071179	26.997458	12.319205	0.000000	-0.325880	-1.898428	3.539763	-0.605192	-2.524909	3.760998	-0.535388	-4.615837	3.760998	-0.372448	-4.615837	3.097292	-0.302612	-3.871274	2.876057	-0.186208	-2.940665	2.654822	-2.327728	-21.475396	19.687099	0.000000	0.000000	-7.981313	-25.507368	-1.004811	32.902938	8.151481	50.038238	149.893675	89.463263	15.137656	17.528653	15.500427	4.385678	22.799759	149.880023	78.838594	8.460987	-24.057976
2.369565	-8.340680	-0.936856	84.186422	0.338990	0.891430	0.732168	-4.476988	-4.872035	18.305640	0.575708	0.010048	26.752364	-4.359572	0.000000	-4.038947	3.317180	-16.883795	3.978273	0.069434	26.991524	12.195957	0.000000	-0.330607	-1.915126	3.574585	-0.613970	-2.547118	3.797996	-0.543154	-4.656438	3.797996	-0.377851	-4.656438	3.127761	-0.307002	-3.905326	2.904350	-0.188909	-2.966531	2.680938	-2.361493	-21.664293	19.880767	0.000000	0.000000	-7.930222	-25.446312	-1.235644	32.978012	8.200777	49.900005	149.894623	89.460858	15.002567	17.475537	15.622218	4.418804	22.666755	149.884792	78.795949	9.160765	-24.098402
2.391304	-8.402019	-0.973122	84.131562	0.339111	0.891344	0.732726	-4.373949	-4.927120	18.151661	0.594628	0.010378	26.690761	-4.120584	0.000000	-3.969229	3.378395	-16.886781	3.889630	0.067887	26.979923	12.041356	0.000000	-0.336151	-1.927253	3.602360	-0.624266	-2.563246	3.827507	-0.552262	-4.685922	3.827507	-0.384187	-4.685922	3.152065	-0.312150	-3.930054	2.926917	-0.192077	-2.985314	2.701770	-2.401092	-21.801467	20.035243	0.000000	0.000000	-7.903413	-25.340820	-1.616814	33.034783	8.199014	49.824329	149.895429	89.460570	14.683562	17.202408	15.755506	4.462805	22.612659	149.889438	78.861738	9.903108	-24.142559
2.413043	-8.420508	-1.056431	84.070823	0.339102	0.891226	0.733392	-4.213661	-4.938449	17.916142	0.622233	0.010860	26.643389	-3.743632	0.000000	-3.856981	3.400378	-16.837203	3.787126	0.066098	26.949040	11.838479	0.000000	-0.341973	-1.930682	3.622994	-0.635079	-2.567806	3.849432	-0.561828	-4.694259	3.849432	-0.390841	-4.694259	3.170120	-0.317557	-3.937046	2.943683	-0.195404	-2.990626	2.717246	-2.442682	-21.840255	20.150008	0.000000	0.000000	-7.872015	-25.226324	-2.054013	33.071203	8.182620	49.803393	149.895911	89.457643	14.323150	16.869805	15.874671	4.534476	22.583775	149.892558	78.500089	11.376054	-24.157171
2.434783	-8.410909	-1.195378	84.002350	0.338946	0.891063	0.734171	-3.984604	-4.920235	17.664856	0.662732	0.011567	26.601371	-3.332251	0.000000	-3.687677	3.398783	-16.722655	3.680337	0.064234	26.894620	11.575216	0.000000	-0.347054	-1.927496	3.639859	-0.644514	-2.563570	3.867351	-0.570175	-4.686514	3.867351	-0.396648	-4.686514	3.184877	-0.322275	-3.930550	2.957386	-0.198307	-2.985692	2.729895	-2.478973	-21.804223	20.243806	0.000000	0.000000	-7.861639	-25.041655	-2.575414	33.100400	8.134690	49.867030	149.896076	89.454411	13.786010	16.436051	15.994116	4.632124	22.641567	149.895044	77.954380	13.194599	-24.195846
2.456522	-8.356633	-1.385074	83.953143	0.338580	0.890871	0.735072	-3.696691	-4.855495	17.386286	0.717657	0.012525	26.555878	-2.907463	0.000000	-3.459620	3.352841	-16.580460	3.588674	0.062634	26.839597	11.345261	0.000000	-0.352652	-1.914783	3.647192	-0.654909	-2.546661	3.875141	-0.579371	-4.655603	3.875141	-0.403046	-4.655603	3.191293	-0.327472	-3.904625	2.963343	-0.201505	-2.965998	2.735394	-2.518956	-21.660405	20.284586	0.000000	0.000000	-7.865247	-24.825327	-3.171299	33.130824	8.052917	50.016067	149.895690	89.452228	13.112844	15.904376	16.113928	4.752302	22.844213	149.896444	77.061349	15.436253	-24.222333
2.478261	-8.258281	-1.604893	83.894540	0.338025	0.890674	0.736040	-3.370200	-4.751081	17.092410	0.786640	0.013729	26.517838	-2.446656	0.000000	-3.203579	3.267927	-16.493486	3.504551	0.061166	26.788013	11.221640	0.000000	-0.358719	-1.891389	3.648385	-0.666176	-2.515547	3.876410	-0.589339	-4.598723	3.876410	-0.409980	-4.598723	3.192337	-0.333106	-3.856920	2.964313	-0.204972	-2.929761	2.736289	-2.562292	-21.395768	20.291225	0.000000	0.000000	-7.905831	-24.558766	-3.748438	33.172009	7.956721	50.256175	149.894832	89.449506	12.337897	15.340419	16.208084	4.897180	23.180095	149.896649	75.731885	18.150524	-24.198923
2.500000	-8.149189	-1.854437	83.811809	0.337337	0.890456	0.737102	-2.994917	-4.640999	16.806433	0.877410	0.015314	26.508677	-1.952406	0.000000	-2.914288	3.179552	-16.435914	3.430146	0.059867	26.718075	11.131451	0.000000	-0.364297	-1.861525	3.646903	-0.676536	-2.475828	3.874834	-0.598503	-4.526111	3.874834	-0.416355	-4.526111	3.191040	-0.338286	-3.796021	2.963109	-0.208159	-2.883502	2.735177	-2.602136	-21.057938	20.282980	0.000000	0.000000	-7.941742	-24.252431	-4.308803	33.236202	7.886930	50.544386	149.893884	89.446264	11.577821	14.850894	16.281189	5.050591	23.602804	149.896058	74.192471	21.087087	-24.163272
2.521739	-8.030413	-2.115920	83.733863	0.336495	0.890233	0.738222	-2.595700	-4.528448	16.446858	0.987657	0.017238	26.550598	-1.352274	0.000000	-2.608237	3.087897	-16.376805	3.375577	0.058915	26.634086	11.066174	0.000000	-0.370168	-1.824255	3.636993	-0.687439	-2.426259	3.864305	-0.608149	-4.435494	3.864305	-0.423065	-4.435494	3.182369	-0.343738	-3.720021	2.955057	-0.211514	-2.825771	2.727745	-2.644072	-20.636338	20.227862	0.000000	0.000000	-7.950200	-23.927886	-4.765503	33.341534	7.859530	50.891398	149.892727	89.444677	10.801641	14.496470	16.326039	5.211496	24.063533	149.895022	72.695588	24.059928	-24.213840
